<svg width="97" height="23" viewBox="0 0 97 23" fill="none" xmlns="http://www.w3.org/2000/svg">
<path d="M7.14 1.72C7.86 1.72 8.58 1.71 9.3 1.69C10.02 1.65 10.72 1.63 11.4 1.63C13.5 1.63 15.05 2.02 16.05 2.8C17.05 3.56 17.38 4.84 17.04 6.64C16.84 7.76 16.27 8.73 15.33 9.55C14.39 10.35 13.25 10.84 11.91 11.02C13.81 11.12 15.19 11.65 16.05 12.61C16.91 13.57 17.15 15 16.77 16.9C16.45 18.42 15.59 19.65 14.19 20.59C12.81 21.53 11.01 22 8.79 22C8.03 22 7.17 22 6.21 22C5.27 22 4.32 22 3.36 22C2.42 22.02 1.55 22.05 0.75 22.09C0.77 21.81 0.8 21.57 0.84 21.37C0.88 21.15 0.93 20.96 0.99 20.8C1.61 20.7 2.07 20.56 2.37 20.38C2.69 20.2 2.93 19.91 3.09 19.51C3.25 19.09 3.39 18.49 3.51 17.71L5.67 5.38C5.85 4.38 5.79 3.74 5.49 3.46C5.19 3.16 4.66 2.98 3.9 2.92C3.8 2.48 3.78 2.05 3.84 1.63C4.54 1.67 5.13 1.7 5.61 1.72C6.09 1.72 6.6 1.72 7.14 1.72ZM10.26 2.92C10.06 2.92 9.84 2.93 9.6 2.95C9.38 2.97 9.14 3.02 8.88 3.1L7.56 10.72H8.43C10.05 10.72 11.31 10.38 12.21 9.7C13.13 9 13.7 8.08 13.92 6.94C14.2 5.58 13.99 4.57 13.29 3.91C12.61 3.25 11.6 2.92 10.26 2.92ZM6.3 18.01C6.16 18.83 6.12 19.44 6.18 19.84C6.26 20.22 6.48 20.47 6.84 20.59C7.22 20.69 7.77 20.74 8.49 20.74C9.79 20.74 10.9 20.4 11.82 19.72C12.74 19.04 13.3 18.15 13.5 17.05C13.86 15.25 13.62 13.97 12.78 13.21C11.96 12.45 10.39 12.07 8.07 12.07H7.32L6.3 18.01ZM23.4176 22.27C22.2176 22.27 21.2376 21.96 20.4776 21.34C19.7176 20.7 19.2076 19.84 18.9476 18.76C18.6876 17.68 18.6876 16.46 18.9476 15.1C19.2276 13.68 19.7176 12.44 20.4176 11.38C21.1176 10.32 21.9776 9.49 22.9976 8.89C24.0176 8.29 25.1176 7.99 26.2976 7.99C27.4776 7.99 28.4376 8.29 29.1776 8.89C29.9376 9.47 30.4576 10.28 30.7376 11.32C31.0176 12.34 31.0376 13.52 30.7976 14.86C30.5576 16.28 30.0776 17.55 29.3576 18.67C28.6576 19.79 27.7976 20.67 26.7776 21.31C25.7576 21.95 24.6376 22.27 23.4176 22.27ZM23.8076 20.83C24.4076 20.83 24.9676 20.58 25.4876 20.08C26.0276 19.58 26.4976 18.91 26.8976 18.07C27.3176 17.21 27.6276 16.24 27.8276 15.16C28.1476 13.5 28.1276 12.13 27.7676 11.05C27.4076 9.97 26.7676 9.43 25.8476 9.43C24.9876 9.43 24.1976 9.93 23.4776 10.93C22.7576 11.91 22.2376 13.2 21.9176 14.8C21.6976 15.96 21.6276 17 21.7076 17.92C21.7876 18.82 22.0076 19.53 22.3676 20.05C22.7276 20.57 23.2076 20.83 23.8076 20.83ZM37.0699 22.27C35.8699 22.27 34.8899 21.96 34.1299 21.34C33.3699 20.7 32.8599 19.84 32.5999 18.76C32.3399 17.68 32.3399 16.46 32.5999 15.1C32.8799 13.68 33.3699 12.44 34.0699 11.38C34.7699 10.32 35.6299 9.49 36.6499 8.89C37.6699 8.29 38.7699 7.99 39.9499 7.99C41.1299 7.99 42.0899 8.29 42.8299 8.89C43.5899 9.47 44.1099 10.28 44.3899 11.32C44.6699 12.34 44.6899 13.52 44.4499 14.86C44.2099 16.28 43.7299 17.55 43.0099 18.67C42.3099 19.79 41.4499 20.67 40.4299 21.31C39.4099 21.95 38.2899 22.27 37.0699 22.27ZM37.4599 20.83C38.0599 20.83 38.6199 20.58 39.1399 20.08C39.6799 19.58 40.1499 18.91 40.5499 18.07C40.9699 17.21 41.2799 16.24 41.4799 15.16C41.7999 13.5 41.7799 12.13 41.4199 11.05C41.0599 9.97 40.4199 9.43 39.4999 9.43C38.6399 9.43 37.8499 9.93 37.1299 10.93C36.4099 11.91 35.8899 13.2 35.5699 14.8C35.3499 15.96 35.2799 17 35.3599 17.92C35.4399 18.82 35.6599 19.53 36.0199 20.05C36.3799 20.57 36.8599 20.83 37.4599 20.83ZM46.0123 22L48.8323 5.98C48.9923 5.04 49.0723 4.37 49.0723 3.97C49.0723 3.57 48.9323 3.32 48.6523 3.22C48.3923 3.12 47.9423 3.07 47.3023 3.07C47.2823 2.87 47.2823 2.67 47.3023 2.47C47.3423 2.25 47.4023 2.07 47.4823 1.93C48.1023 1.83 48.7923 1.67 49.5523 1.45C50.3323 1.21 50.9923 0.959999 51.5323 0.699999C52.1323 0.899999 52.3423 1.54 52.1623 2.62C51.8823 4.26 51.6323 5.62 51.4123 6.7C51.2123 7.76 51.0323 8.64 50.8723 9.34C50.7323 10.04 50.5923 10.65 50.4523 11.17C50.3323 11.67 50.1923 12.19 50.0323 12.73H50.0623C50.7023 11.39 51.4823 10.27 52.4023 9.37C53.3223 8.45 54.3723 7.99 55.5523 7.99C56.5723 7.99 57.3123 8.32 57.7723 8.98C58.2523 9.62 58.4023 10.36 58.2223 11.2C58.0023 12.24 57.3723 13.13 56.3323 13.87C55.3123 14.59 54.0123 15.21 52.4323 15.73C52.7523 16.09 53.0523 16.49 53.3323 16.93C53.6123 17.35 54.0123 17.97 54.5323 18.79C54.8923 19.37 55.1823 19.74 55.4023 19.9C55.6223 20.06 55.8523 20.14 56.0923 20.14C56.3723 20.14 56.6223 20.08 56.8423 19.96C57.0623 19.82 57.3323 19.59 57.6523 19.27C57.9523 19.53 58.1423 19.85 58.2223 20.23C57.7623 20.73 57.2323 21.2 56.6323 21.64C56.0523 22.06 55.4023 22.27 54.6823 22.27C53.9423 22.27 53.3823 22.02 53.0023 21.52C52.6423 21.02 52.2423 20.35 51.8023 19.51C51.5423 19.01 51.2323 18.48 50.8723 17.92C50.5123 17.36 50.1323 16.82 49.7323 16.3L49.5523 17.41L48.7423 22H46.0123ZM54.3523 9.97C53.8923 9.97 53.3823 10.2 52.8223 10.66C52.2623 11.12 51.7223 11.76 51.2023 12.58C50.6823 13.38 50.2523 14.31 49.9123 15.37C51.4523 15.01 52.6823 14.55 53.6023 13.99C54.5423 13.41 55.1023 12.66 55.2823 11.74C55.3823 11.28 55.3523 10.87 55.1923 10.51C55.0523 10.15 54.7723 9.97 54.3523 9.97ZM59.959 22.09C59.979 21.87 59.999 21.65 60.019 21.43C60.039 21.21 60.089 21 60.169 20.8C60.769 20.74 61.229 20.62 61.549 20.44C61.869 20.24 62.109 19.93 62.269 19.51C62.429 19.09 62.569 18.49 62.689 17.71L64.849 5.38C65.009 4.44 64.949 3.82 64.669 3.52C64.389 3.22 63.869 3.02 63.109 2.92C63.069 2.72 63.039 2.51 63.019 2.29C63.019 2.05 63.029 1.83 63.049 1.63C63.609 1.67 64.179 1.7 64.759 1.72C65.359 1.72 65.969 1.72 66.589 1.72C67.209 1.72 67.859 1.72 68.539 1.72C69.239 1.7 69.879 1.68 70.459 1.66C70.459 2.14 70.379 2.56 70.219 2.92C69.619 2.98 69.149 3.1 68.809 3.28C68.469 3.46 68.209 3.75 68.029 4.15C67.869 4.53 67.729 5.07 67.609 5.77L65.479 18.01C65.359 18.75 65.319 19.31 65.359 19.69C65.419 20.07 65.629 20.33 65.989 20.47C66.349 20.59 66.899 20.65 67.639 20.65H67.819C68.939 20.65 69.829 20.53 70.489 20.29C71.169 20.05 71.739 19.65 72.199 19.09C72.679 18.53 73.149 17.78 73.609 16.84C73.889 16.88 74.129 16.95 74.329 17.05C74.549 17.15 74.749 17.3 74.929 17.5C74.269 18.78 73.739 20.31 73.339 22.09C72.959 22.05 72.449 22.02 71.809 22C71.189 22 70.509 22 69.769 22C69.029 22 68.299 22 67.579 22C66.439 22 65.179 22 63.799 22C62.419 22.02 61.139 22.05 59.959 22.09ZM78.5566 22.27C77.5566 22.27 76.9366 21.87 76.6966 21.07C76.4766 20.27 76.5466 19.23 76.9066 17.95L78.1366 13.63C78.4366 12.61 78.6066 11.87 78.6466 11.41C78.7066 10.95 78.5966 10.66 78.3166 10.54C78.0566 10.42 77.5966 10.36 76.9366 10.36C76.9166 9.92 76.9766 9.54 77.1166 9.22C77.4366 9.18 77.8166 9.09 78.2566 8.95C78.7166 8.81 79.1566 8.65 79.5766 8.47C79.9966 8.29 80.3266 8.13 80.5666 7.99C81.1866 8.25 81.5566 8.69 81.6766 9.31C81.8166 9.91 81.7166 10.83 81.3766 12.07L79.7266 17.86C79.4466 18.84 79.3266 19.47 79.3666 19.75C79.4266 20.03 79.5966 20.17 79.8766 20.17C80.0766 20.17 80.3066 20.1 80.5666 19.96C80.8466 19.82 81.1366 19.6 81.4366 19.3C81.7366 19.5 81.9166 19.82 81.9766 20.26C81.3966 20.88 80.8166 21.37 80.2366 21.73C79.6766 22.09 79.1166 22.27 78.5566 22.27ZM81.1666 4.69C80.6866 4.69 80.3266 4.53 80.0866 4.21C79.8666 3.87 79.8066 3.44 79.9066 2.92C80.0266 2.36 80.2666 1.92 80.6266 1.6C80.9866 1.26 81.3966 1.09 81.8566 1.09C82.3566 1.09 82.7266 1.26 82.9666 1.6C83.2066 1.92 83.2666 2.36 83.1466 2.92C83.0466 3.44 82.8166 3.87 82.4566 4.21C82.0966 4.53 81.6666 4.69 81.1666 4.69ZM90.3799 0.699999C90.9799 0.899999 91.1899 1.54 91.0099 2.62C90.7499 4.06 90.5299 5.29 90.3499 6.31C90.1699 7.31 89.9999 8.17 89.8399 8.89C89.6999 9.59 89.5599 10.22 89.4199 10.78C89.2799 11.32 89.1299 11.86 88.9699 12.4C88.8099 12.92 88.6299 13.5 88.4299 14.14H88.4599C88.8399 13.12 89.3399 12.14 89.9599 11.2C90.5999 10.26 91.3099 9.49 92.0899 8.89C92.8899 8.29 93.7099 7.99 94.5499 7.99C95.5499 7.99 96.2599 8.49 96.6799 9.49C97.0999 10.49 97.0899 12.1 96.6499 14.32C96.3499 15.86 95.8099 17.23 95.0299 18.43C94.2499 19.63 93.2999 20.57 92.1799 21.25C91.0799 21.93 89.8799 22.27 88.5799 22.27H88.5199C87.5599 22.27 86.7599 22.15 86.1199 21.91C85.4799 21.65 84.9099 21.27 84.4099 20.77C84.6899 20.35 84.9699 19.65 85.2499 18.67C85.5499 17.67 85.7999 16.61 85.9999 15.49L87.6799 5.98C87.8599 5.04 87.9399 4.37 87.9199 3.97C87.9199 3.57 87.7799 3.32 87.4999 3.22C87.2399 3.12 86.7899 3.07 86.1499 3.07C86.1299 2.87 86.1299 2.67 86.1499 2.47C86.1899 2.25 86.2499 2.07 86.3299 1.93C86.9499 1.83 87.6399 1.67 88.3999 1.45C89.1799 1.21 89.8399 0.959999 90.3799 0.699999ZM88.0099 18.34L87.4999 20.44C88.0199 20.64 88.6299 20.74 89.3299 20.74C90.5699 20.74 91.5399 20.27 92.2399 19.33C92.9399 18.39 93.4399 17.18 93.7399 15.7C94.0999 14 94.1899 12.7 94.0099 11.8C93.8499 10.88 93.4699 10.42 92.8699 10.42C92.5299 10.42 92.0399 10.74 91.3999 11.38C90.7799 12 90.1499 12.9 89.5099 14.08C88.8899 15.26 88.3899 16.68 88.0099 18.34Z" fill="black"/>
</svg>
