<svg width="15" height="13" viewBox="0 0 15 13" fill="none" xmlns="http://www.w3.org/2000/svg">
<path d="M14.4093 11.6016L9.94973 7.54375C10.6418 6.72969 11.0161 5.73438 11.0161 4.6875C11.0161 3.43438 10.4786 2.25937 9.50669 1.37344C8.53475 0.4875 7.23998 0 5.8645 0C4.48902 0 3.19425 0.489062 2.22231 1.37344C1.24866 2.25781 0.712891 3.43438 0.712891 4.6875C0.712891 5.93906 1.25038 7.11719 2.22231 8.00156C3.19425 8.8875 4.4873 9.375 5.8645 9.375C7.01503 9.375 8.10717 9.03438 9.00183 8.40625L13.4614 12.4625C13.4745 12.4744 13.49 12.4838 13.5071 12.4903C13.5242 12.4967 13.5425 12.5001 13.561 12.5001C13.5795 12.5001 13.5978 12.4967 13.6149 12.4903C13.632 12.4838 13.6475 12.4744 13.6606 12.4625L14.4093 11.7828C14.4224 11.7709 14.4328 11.7568 14.4398 11.7412C14.4469 11.7257 14.4506 11.709 14.4506 11.6922C14.4506 11.6754 14.4469 11.6587 14.4398 11.6431C14.4328 11.6276 14.4224 11.6135 14.4093 11.6016ZM8.58455 7.1625C7.85646 7.82344 6.89139 8.1875 5.8645 8.1875C4.83761 8.1875 3.87254 7.82344 3.14445 7.1625C2.41807 6.5 2.01796 5.62187 2.01796 4.6875C2.01796 3.75312 2.41807 2.87344 3.14445 2.2125C3.87254 1.55156 4.83761 1.1875 5.8645 1.1875C6.89139 1.1875 7.85817 1.55 8.58455 2.2125C9.31093 2.875 9.71103 3.75312 9.71103 4.6875C9.71103 5.62187 9.31093 6.50156 8.58455 7.1625Z" fill="black"/>
</svg>
